<svg width="40" height="40" viewBox="0 0 40 40" fill="none" xmlns="http://www.w3.org/2000/svg">
<rect width="40" height="40" rx="20" fill="#FFDB70"/>
<g clip-path="url(#clip0_278_2563)">
<path d="M25.3449 15.4878C25.3449 15.2668 25.2571 15.0549 25.1008 14.8987C24.9446 14.7424 24.7327 14.6546 24.5117 14.6546L17.8448 14.6546C17.7342 14.6527 17.6243 14.6728 17.5215 14.7138C17.4187 14.7548 17.3252 14.8159 17.2463 14.8934C17.1673 14.971 17.1046 15.0635 17.0619 15.1656C17.0191 15.2676 16.997 15.3771 16.997 15.4878C16.997 15.5984 17.0191 15.708 17.0619 15.81C17.1046 15.9121 17.1673 16.0046 17.2463 16.0821C17.3252 16.1597 17.4187 16.2208 17.5215 16.2618C17.6243 16.3028 17.7342 16.3229 17.8448 16.321L22.5 16.321L14.6965 24.1245C14.5402 24.2808 14.4524 24.4928 14.4524 24.7138C14.4524 24.9348 14.5402 25.1467 14.6965 25.303C14.8527 25.4593 15.0647 25.5471 15.2857 25.5471C15.5067 25.5471 15.7187 25.4593 15.875 25.303L23.6785 17.4995L23.6785 22.1546C23.6823 22.3731 23.7717 22.5813 23.9276 22.7345C24.0834 22.8877 24.2932 22.9735 24.5117 22.9735C24.7302 22.9735 24.94 22.8877 25.0958 22.7345C25.2516 22.5813 25.3411 22.3731 25.3449 22.1546L25.3449 15.4878Z" fill="#2F4858"/>
</g>
<defs>
<clipPath id="clip0_278_2563">
<rect width="20" height="20" fill="white" transform="translate(20 5.85742) rotate(45)"/>
</clipPath>
</defs>
</svg>
