<svg width="1840" height="579" viewBox="0 0 1840 579" fill="none" xmlns="http://www.w3.org/2000/svg">
<g opacity="0.5">
<path d="M215.705 134.373C215.705 160.169 213.945 183.62 210.426 204.725C209.723 210.119 207.377 212.816 203.389 212.816C198.462 212.816 190.956 212.347 180.868 211.409C171.015 210.236 163.509 209.65 158.348 209.65C128.789 209.65 109.905 217.975 101.694 234.625C96.768 244.709 94.3048 265.697 94.3048 297.591V336.284C94.3048 349.417 94.774 369.35 95.7124 396.084C96.8853 422.818 97.4718 442.751 97.4718 455.883C97.4718 462.215 94.774 465.381 89.3785 465.381C82.1062 465.381 71.0805 465.264 56.3014 465.029C41.5223 464.795 30.4966 464.677 23.2243 464.677C17.8288 464.677 15.131 461.746 15.131 455.883C15.131 436.888 15.3656 408.278 15.8348 370.053C16.5385 331.829 16.8904 303.101 16.8904 283.872C16.8904 225.948 11.4949 179.399 0.703767 144.222C0.234589 142.346 0 140.939 0 140.001C0 137.187 1.52483 135.194 4.57449 134.021C13.2543 133.083 25.4529 131.676 41.1704 129.8C66.506 125.11 78.2355 122.765 76.3588 122.765C80.1122 122.765 82.5754 129.683 83.7483 143.519C84.9213 157.355 87.0326 164.273 90.0822 164.273C90.5514 164.273 91.1379 164.038 91.8417 163.569C101.46 157.472 111.078 151.375 120.696 145.278C131.253 138.946 142.044 134.256 153.069 131.207C162.218 128.393 173.948 126.986 188.258 126.986C206.556 126.986 215.705 129.448 215.705 134.373Z" fill="url(#paint0_linear_278_2628)"/>
<path d="M596.443 146.333C596.443 147.271 596.091 149.382 595.387 152.665C586.238 206.367 581.664 252.682 581.664 291.611C581.664 293.956 584.596 346.603 590.461 449.552L590.813 454.476C591.047 461.277 587.88 464.677 581.312 464.677C574.978 464.677 565.243 465.381 552.106 466.788C539.203 468.43 529.585 469.25 523.251 469.25C518.794 469.25 515.392 461.043 513.047 444.627C510.701 428.211 508.472 420.004 506.361 420.004C504.953 420.004 498.619 424.577 487.359 433.722C473.518 444.979 460.616 453.538 448.652 459.401C430.119 468.781 411.587 473.471 393.054 473.471C347.544 473.471 309.189 455.297 277.988 418.948C248.43 384.241 233.651 343.789 233.651 297.591C233.651 245.53 248.547 202.498 278.34 168.494C309.54 133.083 350.593 115.378 401.499 115.378C437.391 115.378 468.709 127.807 495.452 152.665C499.44 157.355 505.657 164.156 514.102 173.067C514.806 173.77 515.51 174.122 516.213 174.122C517.621 174.122 519.615 166.735 522.195 151.961C524.776 137.187 528.06 129.8 532.048 129.8C538.382 129.8 550.229 131.559 567.588 135.077C586.825 139.298 596.443 143.05 596.443 146.333ZM506.713 293.369C506.713 264.525 498.15 239.784 481.025 219.148C462.962 196.869 439.855 185.73 411.704 185.73C383.553 185.73 360.094 196.752 341.327 218.796C323.264 239.902 314.232 264.759 314.232 293.369C314.232 321.745 323.264 346.368 341.327 367.239C360.094 389.049 383.553 399.953 411.704 399.953C439.151 399.953 462.141 388.814 480.673 366.536C498.033 345.665 506.713 321.276 506.713 293.369Z" fill="url(#paint1_linear_278_2628)"/>
<path d="M957.828 231.811C957.828 264.877 956.772 284.106 954.661 289.5C951.142 300.053 932.14 330.891 897.655 382.013C862.232 434.309 841.119 461.863 834.316 464.677C831.032 466.084 821.179 466.788 804.758 466.788C789.041 466.788 778.719 466.084 773.792 464.677C767.224 462.567 745.759 436.067 709.398 385.179C673.975 335.698 654.152 305.564 649.929 294.776C644.299 280.002 641.484 257.138 641.484 226.183C641.484 216.568 641.719 202.146 642.188 182.916C642.657 163.687 642.892 149.264 642.892 139.649C642.892 134.49 645.472 131.911 650.633 131.911C658.374 131.911 669.869 132.262 685.118 132.966C700.601 133.669 712.213 134.021 719.954 134.021C724.177 134.021 726.288 136.366 726.288 141.057C726.288 148.561 725.819 159.7 724.88 174.474C723.942 189.013 723.473 200.035 723.473 207.539C723.473 229.114 724.646 248.813 726.992 266.635C728.165 275.547 740.011 297.356 762.532 332.063C785.287 366.77 799.362 384.124 804.758 384.124C809.919 384.124 822.704 367.122 843.113 333.118C863.288 299.818 874.079 278.83 875.487 270.153C877.363 258.428 878.302 238.26 878.302 209.65C878.302 201.911 877.481 190.303 875.839 174.826C874.431 159.348 873.727 147.74 873.727 140.001C873.727 136.484 875.487 134.725 879.006 134.725C886.747 134.725 898.125 134.373 913.138 133.67C928.152 132.731 939.412 132.262 946.919 132.262C954.191 132.262 957.828 165.445 957.828 231.811Z" fill="url(#paint2_linear_278_2628)"/>
<path d="M1110.19 43.9702C1110.19 72.8147 1094.12 87.2369 1061.99 87.2369C1029.38 87.2369 1013.07 72.8147 1013.07 43.9702C1013.07 31.0723 1018.12 20.4022 1028.2 11.9599C1037.59 3.98663 1048.85 0 1061.99 0C1075.12 0 1086.38 4.10389 1095.77 12.3117C1105.38 20.5194 1110.19 31.0723 1110.19 43.9702ZM1107.73 139.298C1107.73 157.355 1106.56 184.675 1104.21 221.258C1102.1 257.607 1101.04 284.927 1101.04 303.219C1101.04 320.338 1101.4 346.016 1102.1 380.255C1102.8 414.258 1103.16 439.702 1103.16 456.587C1103.16 461.512 1101.04 463.974 1096.82 463.974H1028.2C1023.28 463.974 1020.81 459.166 1020.81 449.552C1020.81 433.371 1021.17 409.099 1021.87 376.737C1022.81 344.14 1023.28 319.634 1023.28 303.219C1023.28 284.927 1021.87 257.49 1019.06 220.906C1016.47 184.323 1015.18 156.886 1015.18 138.594C1015.18 134.608 1017.65 132.614 1022.57 132.614C1026.8 132.614 1033.25 133.2 1041.93 134.373C1050.84 135.546 1057.53 136.132 1061.99 136.132C1066.44 136.132 1073.01 135.546 1081.69 134.373C1090.6 133.2 1097.29 132.614 1101.75 132.614C1105.74 132.614 1107.73 134.842 1107.73 139.298Z" fill="url(#paint3_linear_278_2628)"/>
<path d="M1474.04 219.851C1474.04 259.483 1472.87 283.403 1470.52 291.611C1467.47 302.163 1438.38 348.244 1383.25 429.853C1328.36 511.227 1295.75 556.722 1285.43 566.337C1276.05 574.779 1245.79 579 1194.65 579C1188.55 579 1184.56 578.297 1182.68 576.889C1181.04 575.717 1177.05 567.275 1170.72 551.563C1164.62 535.851 1161.57 526.47 1161.57 523.422C1161.57 518.262 1167.78 515.683 1180.22 515.683C1206.49 515.683 1225.85 511.931 1238.28 504.426C1242.5 501.847 1248.84 493.756 1257.28 480.155C1265.96 466.553 1270.3 457.408 1270.3 452.717C1270.3 446.386 1253.29 421.645 1219.28 378.496C1183.39 332.767 1163.33 303.805 1159.1 291.611C1155.82 281.996 1154.18 259.014 1154.18 222.665C1154.18 213.754 1154.3 200.387 1154.53 182.564C1154.77 164.507 1154.88 150.906 1154.88 141.76C1154.88 136.601 1157.7 134.021 1163.33 134.021C1170.83 134.021 1181.86 134.49 1196.4 135.428C1211.18 136.366 1222.33 136.835 1229.83 136.835C1233.59 136.835 1235.46 139.298 1235.46 144.222C1235.46 150.789 1235.11 160.638 1234.41 173.77C1233.7 186.903 1233.35 196.752 1233.35 203.318C1233.35 231.928 1234.29 253.269 1236.17 267.339C1237.58 276.25 1250.36 298.411 1274.52 333.822C1298.69 369.233 1313.58 386.938 1319.21 386.938C1323.2 386.938 1335.87 369.584 1357.22 334.877C1378.56 299.936 1389.94 278.361 1391.35 270.153C1393.22 258.428 1394.16 237.087 1394.16 206.132C1394.16 199.332 1393.46 189.365 1392.05 176.233C1390.64 162.866 1389.94 152.899 1389.94 146.333C1389.94 140.47 1391.82 137.539 1395.57 137.539C1403.08 137.539 1414.34 137.07 1429.35 136.132C1444.6 134.959 1455.98 134.373 1463.48 134.373C1470.52 134.373 1474.04 162.866 1474.04 219.851Z" fill="url(#paint4_linear_278_2628)"/>
<path d="M1840 293.369C1840 342.382 1823.93 384.241 1791.79 418.948C1758.95 454.828 1718.25 472.768 1669.69 472.768C1620.89 472.768 1580.08 454.945 1547.23 419.3C1515.09 384.827 1499.02 343.085 1499.02 294.073C1499.02 245.061 1515.09 203.318 1547.23 168.846C1580.31 133.67 1621.13 116.081 1669.69 116.081C1718.01 116.081 1758.6 133.67 1791.44 168.846C1823.81 203.084 1840 244.592 1840 293.369ZM1765.75 294.073C1765.75 265.463 1756.96 241.074 1739.36 220.906C1721.06 199.566 1697.84 188.896 1669.69 188.896C1641.54 188.896 1618.2 199.449 1599.66 220.555C1582.07 240.957 1573.27 265.463 1573.27 294.073C1573.27 322.214 1582.19 346.603 1600.02 367.239C1618.78 389.049 1642.01 399.953 1669.69 399.953C1697.6 399.953 1720.83 389.049 1739.36 367.239C1756.96 346.603 1765.75 322.214 1765.75 294.073Z" fill="url(#paint5_linear_278_2628)"/>
</g>
<defs>
<linearGradient id="paint0_linear_278_2628" x1="915.512" y1="879" x2="913.794" y2="0.0351886" gradientUnits="userSpaceOnUse">
<stop stop-color="#121B22" stop-opacity="0"/>
<stop offset="0.775911" stop-color="#677987"/>
</linearGradient>
<linearGradient id="paint1_linear_278_2628" x1="915.512" y1="879" x2="913.794" y2="0.0351886" gradientUnits="userSpaceOnUse">
<stop stop-color="#121B22" stop-opacity="0"/>
<stop offset="0.775911" stop-color="#677987"/>
</linearGradient>
<linearGradient id="paint2_linear_278_2628" x1="915.512" y1="879" x2="913.794" y2="0.0351886" gradientUnits="userSpaceOnUse">
<stop stop-color="#121B22" stop-opacity="0"/>
<stop offset="0.775911" stop-color="#677987"/>
</linearGradient>
<linearGradient id="paint3_linear_278_2628" x1="915.512" y1="879" x2="913.794" y2="0.0351886" gradientUnits="userSpaceOnUse">
<stop stop-color="#121B22" stop-opacity="0"/>
<stop offset="0.775911" stop-color="#677987"/>
</linearGradient>
<linearGradient id="paint4_linear_278_2628" x1="915.512" y1="879" x2="913.794" y2="0.0351886" gradientUnits="userSpaceOnUse">
<stop stop-color="#121B22" stop-opacity="0"/>
<stop offset="0.775911" stop-color="#677987"/>
</linearGradient>
<linearGradient id="paint5_linear_278_2628" x1="915.512" y1="879" x2="913.794" y2="0.0351886" gradientUnits="userSpaceOnUse">
<stop stop-color="#121B22" stop-opacity="0"/>
<stop offset="0.775911" stop-color="#677987"/>
</linearGradient>
</defs>
</svg>
